<svg xmlns="http://www.w3.org/2000/svg" xmlns:xlink="http://www.w3.org/1999/xlink" width="61.001" height="53" viewBox="0 0 61.001 53">
  <defs>
    <clipPath id="clip-path">
      <rect id="Rectangle_21" data-name="Rectangle 21" width="61" height="53" transform="translate(0 0)" fill="none"/>
    </clipPath>
  </defs>
  <g id="icon-heart-empty-1" transform="translate(-383 -1406)">
    <g id="icon-heart-empty-1-2" data-name="icon-heart-empty-1" transform="translate(383 1406)">
      <g id="Group_38" data-name="Group 38">
        <g id="Group_37" data-name="Group 37" clip-path="url(#clip-path)">
          <path id="Path_31" data-name="Path 31" d="M16.535,5.287a8.593,8.593,0,0,1,3.557.838,22.731,22.731,0,0,1,8.366,6.512A2.457,2.457,0,0,0,30.5,13.669a2.639,2.639,0,0,0,2.108-1.032,26.408,26.408,0,0,1,4.809-4.449q3.952-2.9,7.114-2.9,11.067,0,11.067,11.09a11.094,11.094,0,0,1-.922,4.32A19.945,19.945,0,0,1,50.46,27.08l-9.947,9.736L30.5,46.617,21.278,37.59,10.54,27.08a23.889,23.889,0,0,1-2.108-2.644Q5.4,20.117,5.4,16.377q0-11.09,11.133-11.09M1.186,22.309A27.408,27.408,0,0,0,6.456,30.5a13.82,13.82,0,0,0,1.317,1.354L28.656,52.226A2.415,2.415,0,0,0,30.5,53a3.024,3.024,0,0,0,1.976-.774l20.751-20.31.263-.129q.131-.193.429-.549c.2-.235.428-.483.691-.741a28.6,28.6,0,0,0,2.7-3.417A19.184,19.184,0,0,0,61,16.377,18.332,18.332,0,0,0,59.551,8.7Q55.466,0,44.531,0a12.6,12.6,0,0,0-4.282.709A26.628,26.628,0,0,0,30.5,7.092,32.787,32.787,0,0,0,24.7,2.45,16.255,16.255,0,0,0,16.535,0Q8.695,0,4.348,4.32T0,16.377a15.547,15.547,0,0,0,1.186,5.932" fill="#506a85"/>
        </g>
      </g>
    </g>
    <path id="Color_Overlay" data-name="Color Overlay" d="M411.656,1458.226l-20.882-20.374a13.844,13.844,0,0,1-1.318-1.354,27.418,27.418,0,0,1-5.27-8.188,15.553,15.553,0,0,1-1.185-5.932q0-7.737,4.348-12.057t12.187-4.32a16.259,16.259,0,0,1,8.168,2.45,32.807,32.807,0,0,1,5.8,4.643,26.626,26.626,0,0,1,9.75-6.384,12.593,12.593,0,0,1,4.281-.709q10.935,0,15.02,8.7a18.333,18.333,0,0,1,1.449,7.672,19.183,19.183,0,0,1-3.689,10.7,28.548,28.548,0,0,1-2.7,3.417,10.047,10.047,0,0,0-.691.742q-.3.355-.428.548l-.264.129-20.75,20.31a3.027,3.027,0,0,1-1.976.774A2.417,2.417,0,0,1,411.656,1458.226ZM388.4,1422.377q0,3.741,3.03,8.06a23.883,23.883,0,0,0,2.108,2.643l10.738,10.51,9.222,9.026,10.012-9.8,9.948-9.736a19.948,19.948,0,0,0,4.216-6.383,11.087,11.087,0,0,0,.923-4.32q0-11.09-11.067-11.09-3.162,0-7.115,2.9a26.418,26.418,0,0,0-4.809,4.45,2.638,2.638,0,0,1-2.108,1.031,2.456,2.456,0,0,1-2.042-1.031,22.721,22.721,0,0,0-8.366-6.512,8.582,8.582,0,0,0-3.557-.838Q388.4,1411.287,388.4,1422.377Z" fill="#00bc9c"/>
  </g>
</svg>
