<svg xmlns="http://www.w3.org/2000/svg" xmlns:xlink="http://www.w3.org/1999/xlink" width="56" height="53" viewBox="0 0 56 53">
  <defs>
    <clipPath id="clip-path">
      <rect id="Rectangle_17" data-name="Rectangle 17" width="56" height="53" transform="translate(0 0)" fill="none"/>
    </clipPath>
  </defs>
  <g id="icon-star-empty-1" transform="translate(-1189 -1406)">
    <g id="icon-star-empty-1-2" data-name="icon-star-empty-1" transform="translate(1189 1406)">
      <g id="Group_30" data-name="Group 30">
        <g id="Group_29" data-name="Group 29" clip-path="url(#clip-path)">
          <path id="Path_27" data-name="Path 27" d="M22.309,21.406,27.967,9.994l5.724,11.412,12.683,1.805-9.171,8.9L39.35,44.618,27.967,38.751,16.65,44.618,18.8,32.109l-9.171-8.9ZM11.577,53a2.275,2.275,0,0,0,1.3-.451l15.089-7.866,15.154,7.866A2.36,2.36,0,0,0,44.488,53q1.366,0,1.366-1.676a2.749,2.749,0,0,0-.032-.355,2.457,2.457,0,0,1-.033-.29l-2.862-16.7L55.22,22.18A2.485,2.485,0,0,0,56,20.5q0-.967-1.821-1.483l-16.911-2.45L29.659,1.354Q28.943,0,27.967,0q-1.042,0-1.626,1.354l-7.61,15.217L1.821,19.021Q0,19.537,0,20.5A2.571,2.571,0,0,0,.846,22.18l12.228,11.8-2.862,16.7a2.611,2.611,0,0,1-.033.354,2.591,2.591,0,0,0-.032.291Q10.146,53,11.577,53" fill="#506a85"/>
        </g>
      </g>
    </g>
    <path id="Color_Overlay" data-name="Color Overlay" d="M1232.122,1458.548l-15.154-7.866-15.089,7.866a2.276,2.276,0,0,1-1.3.452q-1.432,0-1.431-1.677a2.664,2.664,0,0,1,.031-.291,2.52,2.52,0,0,0,.033-.354l2.862-16.7-12.228-11.8a2.568,2.568,0,0,1-.845-1.676q0-.968,1.821-1.483l16.911-2.45,7.609-15.217q.586-1.354,1.626-1.354.976,0,1.691,1.354l7.609,15.217,16.911,2.45q1.82.517,1.821,1.483a2.485,2.485,0,0,1-.78,1.676l-12.293,11.8,2.862,16.7a2.4,2.4,0,0,0,.033.29,2.815,2.815,0,0,1,.032.355q0,1.675-1.366,1.677A2.363,2.363,0,0,1,1232.122,1458.548Zm-3.772-7.93-2.146-12.509,9.171-8.9-12.683-1.805-5.724-11.413-5.658,11.413-12.683,1.805,9.17,8.9-2.146,12.509,11.318-5.868Z" fill="#00bc9c"/>
  </g>
</svg>
