<svg xmlns="http://www.w3.org/2000/svg" xmlns:xlink="http://www.w3.org/1999/xlink" width="46" height="65" viewBox="0 0 46 65">
  <defs>
    <clipPath id="clip-path">
      <rect id="Rectangle_19" data-name="Rectangle 19" width="46" height="65" transform="translate(0 0)" fill="none"/>
    </clipPath>
  </defs>
  <g id="icon-lamp" transform="translate(-799 -1406)">
    <g id="icon-lamp-2" data-name="icon-lamp" transform="translate(799 1406)">
      <g id="Group_34" data-name="Group 34">
        <g id="Group_33" data-name="Group 33" clip-path="url(#clip-path)">
          <path id="Path_29" data-name="Path 29" d="M22.947,6.759q14.992,0,16.044,12.739a13.264,13.264,0,0,1-.46,4.095,18.655,18.655,0,0,1-2.17,4.03q-.067.13-.855,1.235l-1.578,2.21q-.789,1.105-.855,1.17-5.787,7.67-7.364,13.779H20.317q-1.578-5.978-7.364-13.779-.132-.129-1.052-1.43t-.986-1.43q-.067-.129-.888-1.235t-.887-1.235l-.263-.39q-.2-.39-.427-.78a6.139,6.139,0,0,1-.395-.78,2.242,2.242,0,0,1-.165-.455q0-.064-.395-1.17A3.5,3.5,0,0,1,7.166,22.1a4.515,4.515,0,0,0-.132-1.268q-.2-1.2,0-1.332Q8.086,6.76,22.947,6.759m8.942,44.976a17.864,17.864,0,0,1,1.578-7.409,26.6,26.6,0,0,1,1.808-3.348q1.086-1.72,1.841-2.762t2.269-2.925l2.1-2.73Q46.421,26,45.961,18.978A20.91,20.91,0,0,0,39.714,5.589Q34.059,0,22.947,0,11.9,0,6.246,5.589A19.956,19.956,0,0,0,.065,18.978a17.375,17.375,0,0,0,1.61,8.9A26.4,26.4,0,0,0,6.64,35.292a33.96,33.96,0,0,1,5.227,7.571,19.126,19.126,0,0,1,2.269,8.872ZM13.741,62.394a17.725,17.725,0,0,0,9.205,2.6,17.172,17.172,0,0,0,9.337-2.6V55.635H13.741Z" fill="#506a85"/>
        </g>
      </g>
    </g>
    <path id="Color_Overlay" data-name="Color Overlay" d="M822.267,1471l-.32-.005a17.735,17.735,0,0,1-9.206-2.6v-6.759h18.543v6.759a17.327,17.327,0,0,1-8.812,2.605Zm-9.13-13.264a19.129,19.129,0,0,0-2.269-8.872,33.974,33.974,0,0,0-5.227-7.572,26.394,26.394,0,0,1-4.965-7.409A17.554,17.554,0,0,1,799,1426.5v-.065q0-.728.065-1.46a19.955,19.955,0,0,1,6.181-13.388q5.654-5.589,16.7-5.59,11.112,0,16.767,5.59a20.908,20.908,0,0,1,6.246,13.388q.46,7.019-4.471,13.584l-2.1,2.73q-1.512,1.886-2.269,2.925t-1.841,2.761a26.619,26.619,0,0,0-1.808,3.348,17.866,17.866,0,0,0-1.578,7.41Zm-7.1-32.237q-.2.13,0,1.332a4.484,4.484,0,0,1,.131,1.267,3.494,3.494,0,0,0,.329,1.235q.394,1.106.394,1.17a2.267,2.267,0,0,0,.165.455,6.046,6.046,0,0,0,.4.779c.152.26.3.52.427.78l.263.39q.065.131.887,1.235t.888,1.235q.065.131.986,1.43t1.052,1.43q5.785,7.8,7.364,13.779h5.392q1.578-6.109,7.365-13.779.065-.065.855-1.17l1.578-2.209q.788-1.1.855-1.235a18.72,18.72,0,0,0,2.17-4.03,13.258,13.258,0,0,0,.46-4.094q-1.053-12.738-16.043-12.74Q807.085,1412.759,806.035,1425.5Z" fill="#00bc9c"/>
  </g>
</svg>
